<svg width="87" height="87" viewBox="0 0 87 87" fill="none" xmlns="http://www.w3.org/2000/svg">
<circle cx="43.5" cy="43.5" r="43.5" fill="#EBAD52"/>
<path fill-rule="evenodd" clip-rule="evenodd" d="M29.333 45.8333C32.3706 45.8333 34.833 48.2957 34.833 51.3333V60.5C34.833 63.5377 32.3706 66 29.333 66C26.2954 66 23.833 63.5377 23.833 60.5V51.3333C23.833 48.2957 26.2954 45.8333 29.333 45.8333ZM43.9997 22C47.0373 22 49.4997 24.4624 49.4997 27.5V60.5C49.4997 63.5377 47.0373 66 43.9997 66C40.962 66 38.4997 63.5377 38.4997 60.5V27.5C38.4997 24.4624 40.962 22 43.9997 22ZM58.6663 34.8333C61.704 34.8333 64.1663 37.2958 64.1663 40.3333V60.5C64.1663 63.5377 61.704 66 58.6663 66C55.6287 66 53.1663 63.5377 53.1663 60.5V40.3333C53.1663 37.2958 55.6287 34.8333 58.6663 34.8333Z" fill="white"/>
</svg>
