<svg width="87" height="87" viewBox="0 0 87 87" fill="none" xmlns="http://www.w3.org/2000/svg">
<circle cx="43.5" cy="43.5" r="43.5" fill="#EBAD52"/>
<path d="M51.756 70.6875H51.5765C50.9183 70.6515 50.2917 70.4186 49.7941 70.0253C49.2965 69.6319 48.9559 69.1001 48.8252 68.5125L44.2196 47.9316C44.1024 47.4091 43.8188 46.9295 43.404 46.5524C42.9892 46.1754 42.4617 45.9175 41.8869 45.811L19.2479 41.6241C18.6003 41.5072 18.0135 41.1987 17.579 40.7469C17.1444 40.295 16.8866 39.7252 16.8456 39.1261C16.8046 38.5271 16.9829 37.9326 17.3525 37.4353C17.7221 36.938 18.2624 36.5658 18.889 36.3769L66.739 21.886C67.2761 21.6844 67.8662 21.6294 68.4371 21.7277C69.0081 21.826 69.5351 22.0735 69.9539 22.4397C70.3726 22.806 70.6649 23.2752 70.7951 23.7901C70.9252 24.3049 70.8875 24.8431 70.6866 25.3388L54.7466 68.8388C54.5385 69.4015 54.1335 69.8868 53.5935 70.2207C53.0535 70.5545 52.4081 70.7185 51.756 70.6875Z" fill="white"/>
</svg>
