<svg width="87" height="87" viewBox="0 0 87 87" fill="none" xmlns="http://www.w3.org/2000/svg">
<circle cx="43.5" cy="43.5" r="43.5" fill="#EBAD52"/>
<path d="M58.0924 28.9751H56.2177V27.1003C56.2177 26.4422 55.6841 25.9085 55.0259 25.9085C54.3677 25.9085 53.8341 26.4421 53.8341 27.1003V28.9751H51.9594C51.3013 28.9751 50.7676 29.5087 50.7676 30.1669C50.7676 30.8251 51.3012 31.3587 51.9594 31.3587H53.8341V33.2334C53.8341 33.8915 54.3677 34.4252 55.0259 34.4252C55.6841 34.4252 56.2177 33.8916 56.2177 33.2334V31.3587H58.0924C58.7505 31.3587 59.2842 30.8251 59.2842 30.1669C59.2842 29.5087 58.7505 28.9751 58.0924 28.9751Z" fill="white"/>
<path d="M60.4311 22H49.2015C47.2337 22 45.6328 23.6009 45.6328 25.5687V35.0223C45.6328 36.9901 47.2337 38.5909 49.2015 38.5909H50.9606V40.9511C50.9606 41.4026 51.2156 41.8151 51.6194 42.0171C51.788 42.1015 51.9705 42.1429 52.1522 42.1429C52.4054 42.1429 52.6571 42.0623 52.8673 41.9046L57.2854 38.5911H60.431C62.3988 38.5911 63.9997 36.9902 63.9997 35.0224V25.5687C63.9998 23.6009 62.3989 22 60.4311 22ZM61.6162 35.0223C61.6162 35.6758 61.0846 36.2074 60.4311 36.2074H56.8883C56.6305 36.2074 56.3795 36.2911 56.1733 36.4457L53.3442 38.5674V37.399C53.3442 36.7409 52.8106 36.2072 52.1524 36.2072H49.2015C48.548 36.2072 48.0164 35.6757 48.0164 35.0221V25.5687C48.0164 24.9152 48.548 24.3836 49.2015 24.3836H60.4311C61.0846 24.3836 61.6162 24.9152 61.6162 25.5687V35.0223Z" fill="white"/>
<path d="M34.7442 55.2828C22.6701 43.2055 23.2479 34.0718 28.7716 29.9295L29.9954 29.0179C30.3076 28.7881 30.6628 28.6235 31.0399 28.5336C31.417 28.4437 31.8084 28.4306 32.1906 28.4948C32.5729 28.5591 32.9384 28.6995 33.2654 28.9077C33.5924 29.116 33.8743 29.3878 34.0943 29.707L37.1762 34.1421C37.5886 34.7356 37.7669 35.4608 37.6769 36.1779C37.5868 36.8951 37.2347 37.5536 36.6883 38.0267L33.7215 40.5917C32.9798 41.2339 32.6167 42.208 32.9505 43.1313C33.5673 44.8491 35.0643 47.8806 38.605 51.4197C42.1456 54.9607 45.1749 56.458 46.8925 57.0768C47.8177 57.4086 48.7917 57.0475 49.4338 56.3038L51.9985 53.3405C52.4716 52.7941 53.13 52.4419 53.8471 52.3518C54.5642 52.2617 55.2892 52.4401 55.8827 52.8525L60.3251 55.9368C60.644 56.1561 60.9156 56.4372 61.1237 56.7635C61.3319 57.0898 61.4723 57.4546 61.5368 57.8362C61.6012 58.2179 61.5883 58.6086 61.4989 58.9851C61.4094 59.3617 61.2452 59.7164 61.0161 60.0283L60.0987 61.2639C55.9588 66.7844 46.8222 67.3602 34.7442 55.2828Z" fill="white"/>
</svg>
