<svg width="87" height="87" viewBox="0 0 87 87" fill="none" xmlns="http://www.w3.org/2000/svg">
<circle cx="43.5" cy="43.5" r="43.5" fill="#EBAD52"/>
<path d="M72.5805 55.1906L51.7277 20.6081C50.8845 19.289 49.7228 18.2034 48.3496 17.4515C46.9765 16.6995 45.4361 16.3054 43.8705 16.3054C42.305 16.3054 40.7646 16.6995 39.3914 17.4515C38.0183 18.2034 36.8566 19.289 36.0134 20.6081L15.1605 55.1906C14.4239 56.4186 14.0235 57.8188 13.9997 59.2505C13.9758 60.6823 14.3293 62.0951 15.0246 63.3469C15.8285 64.7559 16.9921 65.9262 18.3964 66.7383C19.8008 67.5503 21.3955 67.9749 23.0177 67.9687H64.7234C66.3349 67.9859 67.9225 67.5777 69.3259 66.7854C70.7292 65.993 71.8988 64.8444 72.7165 63.4556C73.4322 62.1908 73.797 60.7577 73.7731 59.3046C73.7492 57.8515 73.3375 56.4312 72.5805 55.1906ZM43.8705 57.0937C43.3328 57.0937 42.8072 56.9343 42.3601 56.6356C41.913 56.3368 41.5645 55.9122 41.3587 55.4154C41.153 54.9186 41.0991 54.372 41.204 53.8446C41.3089 53.3172 41.5679 52.8328 41.9481 52.4525C42.3283 52.0723 42.8128 51.8134 43.3401 51.7085C43.8675 51.6036 44.4142 51.6574 44.911 51.8632C45.4077 52.069 45.8324 52.4174 46.1311 52.8645C46.4298 53.3116 46.5893 53.8373 46.5893 54.375C46.5893 55.0961 46.3029 55.7876 45.793 56.2974C45.2831 56.8073 44.5916 57.0937 43.8705 57.0937ZM46.5893 46.2187C46.5893 46.9398 46.3029 47.6313 45.793 48.1412C45.2831 48.6511 44.5916 48.9375 43.8705 48.9375C43.1495 48.9375 42.458 48.6511 41.9481 48.1412C41.4382 47.6313 41.1518 46.9398 41.1518 46.2187V35.3437C41.1518 34.6227 41.4382 33.9312 41.9481 33.4213C42.458 32.9114 43.1495 32.625 43.8705 32.625C44.5916 32.625 45.2831 32.9114 45.793 33.4213C46.3029 33.9312 46.5893 34.6227 46.5893 35.3437V46.2187Z" fill="white"/>
</svg>
