<svg width="87" height="87" viewBox="0 0 87 87" fill="none" xmlns="http://www.w3.org/2000/svg">
<rect width="87" height="87" fill="#949494"/>
<rect width="1440" height="1024" transform="translate(-964 -314)" fill="white"/>
<circle cx="43.5" cy="43.5" r="43.5" fill="#EBAD52"/>
<path d="M62.6816 19.0312H24.6191C22.456 19.0313 20.3814 19.8906 18.8518 21.4202C17.3222 22.9498 16.4629 25.0243 16.4629 27.1875V67.9687C16.4637 68.4505 16.5925 68.9234 16.8362 69.339C17.0798 69.7546 17.4295 70.098 17.8495 70.3341C18.2558 70.5643 18.7146 70.6861 19.1816 70.6875C19.6696 70.6874 20.1485 70.5559 20.5682 70.3069L32.7754 62.9119C33.2266 62.6432 33.746 62.5111 34.2707 62.5312H62.6816C64.8448 62.5312 66.9194 61.6719 68.449 60.1423C69.9786 58.6127 70.8379 56.5382 70.8379 54.375V27.1875C70.8379 25.0243 69.9786 22.9498 68.449 21.4202C66.9194 19.8906 64.8448 19.0312 62.6816 19.0312ZM32.7754 43.5C32.2377 43.5 31.712 43.3405 31.2649 43.0418C30.8178 42.7431 30.4694 42.3185 30.2636 41.8217C30.0578 41.3249 30.004 40.7782 30.1089 40.2508C30.2138 39.7235 30.4727 39.239 30.8529 38.8588C31.2332 38.4786 31.7176 38.2196 32.245 38.1147C32.7724 38.0098 33.319 38.0637 33.8158 38.2695C34.3126 38.4752 34.7372 38.8237 35.0359 39.2708C35.3347 39.7179 35.4941 40.2435 35.4941 40.7812C35.4941 41.5023 35.2077 42.1938 34.6978 42.7037C34.188 43.2136 33.4964 43.5 32.7754 43.5ZM43.6504 43.5C43.1127 43.5 42.587 43.3405 42.1399 43.0418C41.6928 42.7431 41.3444 42.3185 41.1386 41.8217C40.9328 41.3249 40.879 40.7782 40.9839 40.2508C41.0888 39.7235 41.3477 39.239 41.7279 38.8588C42.1082 38.4786 42.5926 38.2196 43.12 38.1147C43.6474 38.0098 44.194 38.0637 44.6908 38.2695C45.1876 38.4752 45.6122 38.8237 45.9109 39.2708C46.2097 39.7179 46.3691 40.2435 46.3691 40.7812C46.3691 41.5023 46.0827 42.1938 45.5728 42.7037C45.063 43.2136 44.3714 43.5 43.6504 43.5ZM54.5254 43.5C53.9877 43.5 53.462 43.3405 53.0149 43.0418C52.5678 42.7431 52.2194 42.3185 52.0136 41.8217C51.8078 41.3249 51.754 40.7782 51.8589 40.2508C51.9638 39.7235 52.2227 39.239 52.6029 38.8588C52.9832 38.4786 53.4676 38.2196 53.995 38.1147C54.5224 38.0098 55.069 38.0637 55.5658 38.2695C56.0626 38.4752 56.4872 38.8237 56.7859 39.2708C57.0847 39.7179 57.2441 40.2435 57.2441 40.7812C57.2441 41.5023 56.9577 42.1938 56.4478 42.7037C55.938 43.2136 55.2464 43.5 54.5254 43.5Z" fill="white"/>
</svg>
