<svg width="105" height="105" viewBox="0 0 105 105" fill="none" xmlns="http://www.w3.org/2000/svg">
<path d="M46.5081 56.848L53.7593 53.9304L56.8056 46.4647L49.5544 49.3823L46.5081 56.848Z" fill="#EBAD52"/>
<path d="M51.6566 8.74994C43.1704 8.74994 34.8749 11.2664 27.819 15.981C20.763 20.6956 15.2636 27.3967 12.0161 35.2369C8.76859 43.077 7.9189 51.7041 9.57446 60.0271C11.23 68.3502 15.3165 75.9954 21.3171 81.996C27.3176 87.9966 34.9629 92.083 43.2859 93.7386C51.609 95.3941 60.236 94.5444 68.0762 91.297C75.9163 88.0495 82.6174 82.55 87.332 75.4941C92.0467 68.4381 94.5631 60.1426 94.5631 51.6565C94.5631 46.0219 93.4533 40.4425 91.297 35.2369C89.1408 30.0312 85.9803 25.3012 81.9961 21.317C78.0118 17.3327 73.2818 14.1723 68.0762 12.016C62.8705 9.85975 57.2911 8.74994 51.6566 8.74994ZM68.5188 40.5866L61.0102 58.8648C60.7944 59.3958 60.4744 59.8782 60.0691 60.2835C59.6638 60.6889 59.1814 61.0089 58.6503 61.2246L40.5867 68.5187C40.0145 68.7471 39.3999 68.8495 38.7846 68.8191C38.2139 68.8112 37.6505 68.6894 37.1274 68.461C36.6043 68.2326 36.132 67.9022 35.7382 67.489H35.5237C35.0234 66.908 34.6878 66.2036 34.552 65.4491C34.4162 64.6945 34.485 63.9173 34.7514 63.1983L42.26 44.9202C42.4758 44.3891 42.7958 43.9067 43.2011 43.5014C43.6064 43.0961 44.0888 42.7761 44.6199 42.5603L62.6835 35.2662C63.4868 34.9493 64.367 34.8821 65.2091 35.0735C66.0511 35.2649 66.8159 35.7059 67.4033 36.3388C67.9546 36.8807 68.3493 37.5615 68.5457 38.3092C68.7421 39.0569 68.7328 39.8437 68.5188 40.5866Z" fill="#EBAD52"/>
</svg>
