<svg width="87" height="87" viewBox="0 0 87 87" fill="none" xmlns="http://www.w3.org/2000/svg">
<circle cx="43.5" cy="43.5" r="43.5" fill="#EBAD52"/>
<path d="M22.7557 22.9475L16.8003 43.1563L23.8984 45.9893L29.8537 25.7805L22.7557 22.9475Z" fill="white" stroke="white"/>
<path d="M35.0098 24.6589L34.3193 25.0541C33.4591 25.5414 32.4518 25.6073 31.5576 25.2385L30.4031 24.7643C30.3352 24.7116 30.2673 24.6721 30.1993 24.6457L23.0912 21.8137C22.5593 21.6029 21.9707 21.9322 21.7896 22.5513L15.8247 42.7708C15.7341 43.0737 15.7568 43.403 15.8699 43.6796C15.9831 43.9563 16.1982 44.1802 16.4585 44.2856L23.5553 47.1176C23.6685 47.1571 23.7817 47.1835 23.8835 47.1835C24.3137 47.1835 24.7098 46.8673 24.8569 46.38L30.4823 27.3329L30.8671 27.4909C32.282 28.0705 33.8666 27.9651 35.2248 27.2011L35.9153 26.806C36.7642 26.3186 37.7602 26.2527 38.6544 26.6084L51.7048 31.8378C51.5689 32.47 51.2973 33.2209 50.7993 33.6292C50.2447 34.0771 49.4184 34.0771 48.3318 33.6424L42.514 31.3241C42.2424 31.2187 41.9481 31.245 41.6991 31.4031C41.4501 31.5612 41.269 31.8378 41.1897 32.1539C41.1784 32.1934 40.3748 35.6972 37.8055 37.3043C36.1869 38.3185 34.1722 38.358 31.8066 37.4228C31.2746 37.2121 30.686 37.5414 30.5049 38.1605C30.3238 38.7796 30.6068 39.4645 31.1388 39.6753C32.497 40.2153 33.776 40.4919 34.9645 40.4919C36.3454 40.4919 37.6131 40.1363 38.7676 39.4118C41.0652 37.976 42.2537 35.4601 42.797 33.9585L47.6527 35.8948C49.3844 36.593 50.8332 36.4876 51.9538 35.5787C53.7534 34.1297 53.844 31.1923 53.8553 31.0606C53.8666 30.5337 53.5837 30.0727 53.1649 29.9015L39.3108 24.3428C37.9187 23.7895 36.3454 23.9081 35.0098 24.6589ZM23.261 44.47L18.0997 42.4151L23.3855 24.4613L28.5468 26.5162L23.261 44.47Z" fill="white" stroke="white"/>
<path d="M55.3828 26.9212L63.4509 46.1102L70.1906 42.2723L62.1225 23.0833L55.3828 26.9212Z" fill="white" stroke="white"/>
<path d="M62.1973 45.8267L59.7638 48.4348C57.5566 50.7926 55.0665 52.7817 52.3727 54.3096L39.4581 61.6598C38.8922 61.9891 38.2017 61.7125 37.9188 61.0407C37.6358 60.3821 37.8735 59.5785 38.4508 59.2492L38.6092 59.157L45.672 55.1395C46.1814 54.8497 46.3964 54.1384 46.1474 53.5456C45.8984 52.9529 45.2872 52.7026 44.7779 52.9924L37.715 57.01L34.161 59.0385C33.5951 59.3678 32.9046 59.0912 32.6217 58.4194C32.4858 58.1033 32.4632 57.7344 32.5651 57.4051C32.6669 57.0626 32.8707 56.7992 33.1423 56.6411L35.8248 55.1131L43.4989 50.74C44.0082 50.4502 44.2233 49.7389 43.9743 49.1461C43.7252 48.5534 43.114 48.3031 42.6047 48.5929L34.9193 52.9792L34.6251 53.1505L30.9578 55.2449C30.6862 55.4029 30.3692 55.4293 30.0863 55.3107C29.792 55.1922 29.5656 54.9551 29.4298 54.6389C29.1468 53.9803 29.3845 53.1768 29.9618 52.8475L31.2295 52.123L33.8214 50.6478L34.5458 50.2394L40.4994 46.841C41.0088 46.5512 41.2238 45.8399 40.9748 45.2471C40.7258 44.6544 40.1146 44.4041 39.6053 44.6939L33.1536 48.3689L30.3353 49.976C29.7694 50.2921 29.0789 50.0287 28.796 49.3569C28.6601 49.0407 28.6375 48.6719 28.7394 48.3426C28.8412 48.0001 29.045 47.7367 29.3166 47.5786L34.2402 44.7729C34.7496 44.4831 34.9646 43.7718 34.7156 43.1791C34.4666 42.5863 33.8554 42.3361 33.346 42.6258L28.4224 45.4315C27.6528 45.8662 27.0755 46.6302 26.8039 47.5654C26.5322 48.5007 26.5775 49.5149 26.951 50.4106C27.1887 50.9639 27.5283 51.4249 27.9357 51.7674C27.2227 52.8607 27.0416 54.3623 27.5962 55.6796C27.9697 56.5753 28.6262 57.2471 29.4298 57.5632C29.7694 57.6949 30.1089 57.7608 30.4485 57.7608C30.4372 58.3535 30.539 58.9463 30.7767 59.4863C31.3313 60.8036 32.4745 61.5676 33.6517 61.5676C34.127 61.5676 34.6024 61.449 35.0552 61.1856L35.7796 60.7772C35.8135 61.2251 35.9154 61.6598 36.0852 62.0813C36.6398 63.3985 37.783 64.1625 38.9601 64.1625C39.4355 64.1625 39.9109 64.0439 40.3636 63.7805L53.2782 56.4304C56.1531 54.797 58.8017 52.6895 61.1559 50.1735L64.0422 47.0781L70.6523 43.3108C71.1616 43.021 71.3767 42.3097 71.1277 41.717L63.0462 22.5513C62.9216 22.2615 62.7179 22.0508 62.4576 21.9454C62.1973 21.84 61.9143 21.8664 61.6766 21.9981L54.9307 25.8312C54.4214 26.121 54.2063 26.8323 54.4553 27.4251L62.1973 45.8267ZM61.654 24.6721L68.8187 41.7301L63.9177 44.5226L56.753 27.4646L61.654 24.6721Z" fill="white" stroke="white"/>
</svg>
