<svg width="87" height="87" viewBox="0 0 87 87" fill="none" xmlns="http://www.w3.org/2000/svg">
<circle cx="43.5" cy="43.5" r="43.5" fill="#EBAD52"/>
<path d="M56.8929 26.7878L38.1604 49.2005L30.0825 39.7423C29.2742 38.8031 28.0866 38.1929 26.7808 38.0457C25.475 37.8986 24.1581 38.2267 23.1198 38.9579C22.0815 39.689 21.4068 40.7633 21.2441 41.9444C21.0815 43.1255 21.4442 44.3167 22.2525 45.2559L34.2949 59.1966C34.7616 59.7308 35.3567 60.1618 36.035 60.457C36.7134 60.7521 37.4572 60.9036 38.2099 60.9C38.9667 60.8983 39.7131 60.7399 40.3917 60.4369C41.0704 60.1338 41.6633 59.6942 42.1249 59.1518L64.7725 32.2565C65.5743 31.3054 65.9255 30.1052 65.7489 28.9199C65.5723 27.7346 64.8824 26.6613 63.8309 25.9361C62.7795 25.2109 61.4526 24.8932 60.1421 25.0529C58.8317 25.2126 57.6451 25.8367 56.8434 26.7878H56.8929Z" fill="white"/>
</svg>
