<svg width="87" height="87" viewBox="0 0 87 87" fill="none" xmlns="http://www.w3.org/2000/svg">
<circle cx="43.5" cy="43.5" r="43.5" fill="#EBAD52"/>
<path fill-rule="evenodd" clip-rule="evenodd" d="M42.125 19C42.125 17.9645 42.9645 17.125 44 17.125C58.8427 17.125 70.875 29.1574 70.875 44C70.875 58.8428 58.8427 70.875 44 70.875C29.1573 70.875 17.125 58.8428 17.125 44C17.125 42.9645 17.9645 42.125 19 42.125C20.0355 42.125 20.875 42.9645 20.875 44C20.875 56.7715 31.2284 67.125 44 67.125C56.7715 67.125 67.125 56.7715 67.125 44C67.125 31.2284 56.7715 20.875 44 20.875C42.9645 20.875 42.125 20.0355 42.125 19ZM44 34.625C45.0355 34.625 45.875 35.4645 45.875 36.5V44.625H54C55.0355 44.625 55.875 45.4645 55.875 46.5C55.875 47.5355 55.0355 48.375 54 48.375H44C42.9645 48.375 42.125 47.5355 42.125 46.5V36.5C42.125 35.4645 42.9645 34.625 44 34.625Z" fill="white"/>
<path fill-rule="evenodd" clip-rule="evenodd" d="M36.7488 19.9939C37.1217 20.9599 36.6409 22.0454 35.6749 22.4183C35.3213 22.5548 34.9719 22.6997 34.6269 22.8529C33.6804 23.273 32.5725 22.8464 32.1524 21.8999C31.7322 20.9535 32.1588 19.8456 33.1053 19.4254C33.5066 19.2473 33.913 19.0787 34.3244 18.9199C35.2905 18.547 36.3759 19.0278 36.7488 19.9939ZM28.1191 24.6007C28.8333 25.3505 28.8043 26.5374 28.0545 27.2515C27.7803 27.5127 27.5125 27.7804 27.2514 28.0546C26.5373 28.8045 25.3504 28.8334 24.6005 28.1193C23.8507 27.4051 23.8217 26.2183 24.5359 25.4684C24.839 25.1501 25.1499 24.8392 25.4683 24.536C26.2182 23.8218 27.405 23.8508 28.1191 24.6007ZM21.8998 32.1525C22.8463 32.5727 23.2729 33.6806 22.8527 34.627C22.6996 34.972 22.5547 35.3214 22.4182 35.675C22.0452 36.641 20.9598 37.1219 19.9937 36.749C19.0277 36.376 18.5468 35.2906 18.9198 34.3245C19.0786 33.9132 19.2472 33.5067 19.4253 33.1054C19.8455 32.159 20.9534 31.7323 21.8998 32.1525Z" fill="white"/>
</svg>
