<svg width="87" height="87" viewBox="0 0 87 87" fill="none" xmlns="http://www.w3.org/2000/svg">
<circle cx="43.5" cy="43.5" r="43.5" fill="#EBAD52"/>
<path d="M51.7667 18H36.2312C34.1963 18 32.5469 19.6495 32.5469 21.6852V66.3147C32.5469 68.3505 34.1963 70 36.2312 70H51.7666C53.8015 70 55.4518 68.3505 55.4518 66.3147V21.6852C55.4519 19.6495 53.8015 18 51.7667 18ZM43.999 65.0788C41.0754 65.0788 38.7059 62.7084 38.7059 59.7858C38.7059 56.8631 41.0754 54.4927 43.999 54.4927C46.9225 54.4927 49.292 56.8631 49.292 59.7858C49.292 62.7084 46.9224 65.0788 43.999 65.0788ZM43.999 49.293C41.0754 49.293 38.7059 46.9227 38.7059 44C38.7059 41.0773 41.0754 38.707 43.999 38.707C46.9225 38.707 49.292 41.0773 49.292 44C49.292 46.9227 46.9224 49.293 43.999 49.293ZM43.999 33.5074C41.0754 33.5074 38.7059 31.137 38.7059 28.2143C38.7059 25.2917 41.0754 22.9213 43.999 22.9213C46.9225 22.9213 49.292 25.2917 49.292 28.2143C49.292 31.1369 46.9224 33.5074 43.999 33.5074Z" fill="white"/>
<path d="M22.5498 25.4421C22.5498 28.5244 24.5357 31.2557 27.4683 32.2042L30.4426 33.1663V22.4879H22.5498V25.4421Z" fill="white"/>
<path d="M22.5498 41.6921C22.5498 44.7744 24.5357 47.5057 27.4683 48.4542L30.4426 49.4163V38.7379H22.5498V41.6921Z" fill="white"/>
<path d="M22.5498 57.9421C22.5498 61.0244 24.5357 63.7557 27.4683 64.7042L30.4426 65.6663V54.9879H22.5498V57.9421Z" fill="white"/>
<path d="M57.5566 22.4879V33.1663L60.5309 32.2042C63.4635 31.2557 65.4495 28.5244 65.4495 25.4421V22.4879H57.5566Z" fill="white"/>
<path d="M57.5566 49.4163L60.5309 48.4542C63.4635 47.5057 65.4495 44.7744 65.4495 41.6921V38.7377H57.5566V49.4163Z" fill="white"/>
<path d="M57.5566 65.6663L60.5309 64.7042C63.4635 63.7557 65.4495 61.0244 65.4495 57.9421V54.9877H57.5566V65.6663Z" fill="white"/>
</svg>
